<?xml version="1.0" standalone="no"?>
<!DOCTYPE svg PUBLIC "-//W3C//DTD SVG 20010904//EN"
 "http://www.w3.org/TR/2001/REC-SVG-20010904/DTD/svg10.dtd">
<svg version="1.0" xmlns="http://www.w3.org/2000/svg"
 width="130.000000pt" height="130.000000pt" viewBox="0 0 130.000000 130.000000"
 preserveAspectRatio="xMidYMid meet">
<metadata>
Created by potrace 1.11, written by Peter Selinger 2001-2013
</metadata>
<g transform="translate(0.000000,130.000000) scale(0.100000,-0.100000)"
fill="#000000" stroke="none">
<path d="M205 1284 c-49 -18 -93 -56 -125 -109 l-25 -40 -3 -475 c-2 -352 0
-482 9 -505 20 -50 76 -112 122 -134 42 -20 57 -21 466 -21 400 0 424 1 460
20 49 24 108 93 122 140 7 23 9 200 7 506 l-3 471 -30 49 c-19 30 -49 60 -79
79 l-49 30 -416 2 c-342 1 -423 -1 -456 -13z"/>
</g>
</svg>
